<?xml version="1.0" encoding="UTF-8" standalone="no"?>
<!-- Created with Inkscape (http://www.inkscape.org/) -->

<svg
   xmlns:dc="http://purl.org/dc/elements/1.1/"
   xmlns:cc="http://creativecommons.org/ns#"
   xmlns:rdf="http://www.w3.org/1999/02/22-rdf-syntax-ns#"
   xmlns:svg="http://www.w3.org/2000/svg"
   xmlns="http://www.w3.org/2000/svg"
   xmlns:sodipodi="http://sodipodi.sourceforge.net/DTD/sodipodi-0.dtd"
   xmlns:inkscape="http://www.inkscape.org/namespaces/inkscape"
   id="svg2"
   version="1.1"
   inkscape:version="0.91 r13725"
   width="1000"
   height="1000"
   xml:space="preserve"
   sodipodi:docname="book.svg"><metadata
     id="metadata8"><rdf:RDF><cc:Work
         rdf:about=""><dc:format>image/svg+xml</dc:format><dc:type
           rdf:resource="http://purl.org/dc/dcmitype/StillImage" /><dc:title /></cc:Work></rdf:RDF></metadata><defs
     id="defs6"><clipPath
       clipPathUnits="userSpaceOnUse"
       id="clipPath368"><path
         d="m 4038,3473.2 -2.05,747.86 -115.08,-0.32 2.06,-747.85 115.07,0.31"
         id="path370" /></clipPath><clipPath
       clipPathUnits="userSpaceOnUse"
       id="clipPath410"><path
         d="m 4215.49,3624.5 0.1,239.27 c 56.82,-14.4 98.57,-63.13 98.16,-120.53 -0.4,-56.88 -42.05,-104.61 -98.26,-118.74 m 0.14,386.74 -129.01,0.04 -0.19,-536.83 129.02,-0.04 0.02,41.78 c 114.95,16.07 203.9,111.13 204.7,226.31 0.82,116.17 -88.35,213.15 -204.56,229.57 l 0.02,39.17"
         id="path412" /></clipPath><clipPath
       clipPathUnits="userSpaceOnUse"
       id="clipPath608"><path
         d="m 5848.4,2521.29 c -8.46,148.49 -131.47,266.29 -282.05,266.29 -150.6,0 -273.64,-117.8 -282.07,-266.29 -0.32,-2.95 -0.5,-5.93 -0.5,-8.97 l 0,-329.48 c 0,-46.08 37.32,-83.43 83.39,-83.43 l 398.32,0 c 46.06,0 83.41,37.35 83.41,83.43 l 0,329.48 c 0,3.04 -0.19,6.02 -0.5,8.97"
         id="path610" /></clipPath></defs><sodipodi:namedview
     pagecolor="#ffffff"
     bordercolor="#666666"
     borderopacity="1"
     objecttolerance="10"
     gridtolerance="10"
     guidetolerance="10"
     inkscape:pageopacity="0"
     inkscape:pageshadow="2"
     inkscape:window-width="640"
     inkscape:window-height="480"
     id="namedview4"
     showgrid="false"
     inkscape:zoom="0.236"
     inkscape:cx="500"
     inkscape:cy="730.53423"
     inkscape:window-x="0"
     inkscape:window-y="27"
     inkscape:window-maximized="0"
     inkscape:current-layer="g10" /><g
     id="g10"
     inkscape:groupmode="layer"
     inkscape:label="ink_ext_XXXXXX"
     transform="matrix(1.25,0,0,-1.25,0,1000)"><g
       id="g12"
       transform="matrix(0.1,0,0,0.1,-44.067794,210.1695)"><!--Acá inicia a colocar los path de su icono mi Amor --><path
         id="path660"
         d="m 1633.68,5272.41 c 0,-324.41 -262.99,-587.39 -587.39,-587.39 -324.403,0 -587.388,262.98 -587.388,587.39 0,324.4 262.985,587.38 587.388,587.38 324.4,0 587.39,-262.98 587.39,-587.38"
         inkscape:connector-curvature="0"
         style="fill:#f8a629;fill-rule:nonzero" />
         <path xmlns="http://www.w3.org/2000/svg" id="path662" style="fill:#dcc3a2;fill-opacity:1;fill-rule:evenodd;stroke:none" d="m 1002.47,5046.69 142.59,0 0,100.648 -142.59,0 0,-100.648 z"/>
         <path xmlns="http://www.w3.org/2000/svg" id="path668" style="fill:#f2dab2;fill-opacity:1;fill-rule:evenodd;stroke:none" d="m 1137.37,5135.54 c 49.26,29.08 87.04,87.14 100.46,147.23 -3.03,6.55 -6.39,17.35 -10.34,32.51 -0.71,-4.24 -1.12,-7.95 -1.02,-10.75 0.68,-20.13 -15.62,-42.14 -15.82,0.56 -0.16,36.89 -62.24,123.44 -66.13,125.75 -20.14,-16.3 -72.58,-46.63 -112.44,-55.75 -6.77,-1.55 -18.17,-0.66 -10.08,6.16 6.96,5.89 10.46,13.62 12.97,21.41 2.89,8.92 -34.78,-23.17 -62.47,-37.72 -7.039,-3.68 -21.715,-10.01 -10.766,3.03 6.629,7.91 7.207,13.49 7.657,19.66 -39.391,-21.53 -38.707,-50.87 -38.645,-84.42 0.055,-29.28 -15.84,-38.13 -17.699,-12.28 -2.207,-10.28 -4.918,-16.81 -7.781,-19.66 15.41,-55.89 51.496,-108.5 97.604,-135.73 20.71,-12.24 43.45,-19.37 67.25,-19.37 23.81,0 46.55,7.13 67.25,19.37"/>
         <path xmlns="http://www.w3.org/2000/svg" id="path670" style="fill:#614335;fill-opacity:1;fill-rule:evenodd;stroke:none" d="m 913.047,5290.93 c 1.859,-25.85 17.754,-17 17.699,12.28 -0.062,33.55 -0.746,62.89 38.645,84.42 -0.45,-6.17 -1.028,-11.75 -7.657,-19.66 -10.949,-13.04 3.727,-6.71 10.766,-3.03 27.69,14.55 65.36,46.64 62.47,37.72 -2.51,-7.79 -6.01,-15.52 -12.97,-21.41 -8.09,-6.82 3.31,-7.71 10.08,-6.16 39.86,9.12 92.3,39.45 112.44,55.75 3.89,-2.31 65.97,-88.86 66.13,-125.75 0.2,-42.7 16.5,-20.69 15.82,-0.56 -0.1,2.8 0.31,6.51 1.02,10.75 3.95,-15.16 7.31,-25.96 10.34,-32.51 7.41,-16.19 12.59,-6.71 18.38,26.7 3.46,20.04 2.84,71.08 -15.99,117.31 -10.15,24.89 -24.96,49.01 -44.5,69.01 -0.5,-1.68 -0.96,-3.26 -1.4,-4.69 -5.95,-19.99 -22.49,-35.4 -50.25,-35.4 l -140.16,0 c -27.773,0 -44.336,15.41 -50.301,35.4 -1.129,3.82 -2.562,8.62 -4.129,13.91 -18.292,-15.21 -32.671,-33.95 -42.839,-55.14 -21.407,-44.7 -20.989,-106.04 -19.282,-130.19 2.782,-39.33 10.762,-55.47 17.907,-48.41 2.863,2.85 5.574,9.38 7.781,19.66"/>

         <path xmlns="http://www.w3.org/2000/svg" id="path664" style="fill:#f0453a;fill-opacity:1;fill-rule:evenodd;stroke:none" d="m 1284.68,5068.33 c -31.21,17.28 -139.62,19.71 -139.62,19.71 0,0 -27.78,-27.27 -73.12,-27.27 -45.35,0 -69.47,27.27 -69.47,27.27 0,0 -113.825,-1.32 -146.997,-19.71 -3.602,-2 -95.84,-40.67 -95.84,-95.79 0,-33.67 0,-7.7 0,-46.95 0,-31.26 31.91,-54.6 76.855,-54.6 69.93,0 171.442,0 233.572,0 62.16,0 163.67,0 233.59,0 44.94,0 76.84,23.34 76.84,54.6 0,39.25 0,13.28 0,46.95 0,53.45 -91.09,93.15 -95.81,95.79"/>
         <path xmlns="http://www.w3.org/2000/svg" id="path672" style="fill:#152431;fill-opacity:1;fill-rule:nonzero;stroke:none" d="m 1204.75,5487.83 c 0,-10.68 -4.69,-26.82 -10.42,-35.84 0,0 -12.25,-19.28 -121.32,-19.28 -109.061,0 -138.78,23.6 -138.78,23.6 -8.378,6.65 -15.214,20.84 -15.214,31.52 l 0,88.04 c 0,10.69 8.742,19.43 19.429,19.43 l 246.875,0 c 10.69,0 19.43,-8.74 19.43,-19.43 l 0,-88.04"/>
         <path xmlns="http://www.w3.org/2000/svg" id="path674" style="fill:#192c3c;fill-opacity:1;fill-rule:nonzero;stroke:none" d="m 802.242,5624.77 c -10.14,-3.37 -10.195,-8.99 -0.101,-12.51 l 245.099,-85.36 c 10.09,-3.51 26.56,-3.36 36.57,0.34 l 216.19,79.82 c 10.03,3.71 9.99,9.62 -0.11,13.15 l -230.53,80.56 c -10.09,3.54 -26.65,3.67 -36.8,0.31 l -230.318,-76.31"/>
         <path xmlns="http://www.w3.org/2000/svg" id="path676" style="fill:#f0453a;fill-opacity:1;fill-rule:nonzero;stroke:none" d="m 1224.33,5474.41 c 0,-10.68 -4.4,-19.42 -9.79,-19.42 -5.38,0 -9.79,8.74 -9.79,19.42 l 0,97.47 19.58,7.25 0,-104.72"/>
         <path xmlns="http://www.w3.org/2000/svg" id="path678" style="fill:#f0453a;fill-opacity:1;fill-rule:nonzero;stroke:none" d="m 1237.2,5449.09 c 0,-10.04 -8.73,-18.25 -19.43,-18.25 l -8.87,0 c -10.7,0 -19.44,8.21 -19.44,18.25 0,10.03 8.74,18.24 19.44,18.24 l 8.87,0 c 10.7,0 19.43,-8.21 19.43,-18.24"/>
         <!--Fin de los path de su icono mi Amor --></g></g></svg>
