<?xml version="1.0" encoding="UTF-8" standalone="no"?>
<!-- Created with Inkscape (http://www.inkscape.org/) -->

<svg
   xmlns:dc="http://purl.org/dc/elements/1.1/"
   xmlns:cc="http://creativecommons.org/ns#"
   xmlns:rdf="http://www.w3.org/1999/02/22-rdf-syntax-ns#"
   xmlns:svg="http://www.w3.org/2000/svg"
   xmlns="http://www.w3.org/2000/svg"
   xmlns:sodipodi="http://sodipodi.sourceforge.net/DTD/sodipodi-0.dtd"
   xmlns:inkscape="http://www.inkscape.org/namespaces/inkscape"
   id="svg2"
   version="1.1"
   inkscape:version="0.91 r13725"
   width="1000"
   height="1000"
   xml:space="preserve"
   sodipodi:docname="book.svg"><metadata
     id="metadata8"><rdf:RDF><cc:Work
         rdf:about=""><dc:format>image/svg+xml</dc:format><dc:type
           rdf:resource="http://purl.org/dc/dcmitype/StillImage" /><dc:title /></cc:Work></rdf:RDF></metadata><defs
     id="defs6"><clipPath
       clipPathUnits="userSpaceOnUse"
       id="clipPath368"><path
         d="m 4038,3473.2 -2.05,747.86 -115.08,-0.32 2.06,-747.85 115.07,0.31"
         id="path370" /></clipPath><clipPath
       clipPathUnits="userSpaceOnUse"
       id="clipPath410"><path
         d="m 4215.49,3624.5 0.1,239.27 c 56.82,-14.4 98.57,-63.13 98.16,-120.53 -0.4,-56.88 -42.05,-104.61 -98.26,-118.74 m 0.14,386.74 -129.01,0.04 -0.19,-536.83 129.02,-0.04 0.02,41.78 c 114.95,16.07 203.9,111.13 204.7,226.31 0.82,116.17 -88.35,213.15 -204.56,229.57 l 0.02,39.17"
         id="path412" /></clipPath><clipPath
       clipPathUnits="userSpaceOnUse"
       id="clipPath608"><path
         d="m 5848.4,2521.29 c -8.46,148.49 -131.47,266.29 -282.05,266.29 -150.6,0 -273.64,-117.8 -282.07,-266.29 -0.32,-2.95 -0.5,-5.93 -0.5,-8.97 l 0,-329.48 c 0,-46.08 37.32,-83.43 83.39,-83.43 l 398.32,0 c 46.06,0 83.41,37.35 83.41,83.43 l 0,329.48 c 0,3.04 -0.19,6.02 -0.5,8.97"
         id="path610" /></clipPath></defs><sodipodi:namedview
     pagecolor="#ffffff"
     bordercolor="#666666"
     borderopacity="1"
     objecttolerance="10"
     gridtolerance="10"
     guidetolerance="10"
     inkscape:pageopacity="0"
     inkscape:pageshadow="2"
     inkscape:window-width="640"
     inkscape:window-height="480"
     id="namedview4"
     showgrid="false"
     inkscape:zoom="0.236"
     inkscape:cx="500"
     inkscape:cy="500"
     inkscape:window-x="0"
     inkscape:window-y="27"
     inkscape:window-maximized="0"
     inkscape:current-layer="g10" /><g
     id="g10"
     inkscape:groupmode="layer"
     inkscape:label="ink_ext_XXXXXX"
     transform="matrix(1.25,0,0,-1.25,0,1000)"><g
       id="g12"
       transform="matrix(0.1,0,0,0.1,-488.13559,633.89831)"><!--Acá inicia a colocar los path de su icono mi Amor -->
       <path id="path718" d="m 6136.82,1051.43 c 0,-324.399 -262.98,-587.391 -587.4,-587.391 -324.39,0 -587.39,262.992 -587.39,587.391 0,324.41 263,587.39 587.39,587.39 324.42,0 587.4,-262.98 587.4,-587.39"
         inkscape:connector-curvature="0"
         style="fill:#f0453a;fill-rule:nonzero" /><path
         id="path720"
         d="m 5815.28,756.871 c 0,0 -4.59,-16.719 -26.64,-16.719 l 0,568.248 c 0,14.3 -11.52,25.83 -25.7,25.83 l -439,0.15 c 0,17.71 26.6,26.69 26.6,26.69 l 438.07,0 c 27.43,0 26.64,-24.15 26.64,-24.15 l 0,-580.049 0.03,0 z m 40.53,-12.75 0,634.199 c 0,19.26 -24.18,24.11 -24.18,24.11 l -485.89,0 c -72.52,0 -72.58,-67.09 -72.58,-67.09 l 0,-618.578 c 0,-14.172 11.54,-25.742 25.85,-25.742 l 463.93,0 c 14.18,0 25.7,11.57 25.7,25.742 l 41.36,0.109 c 27.75,-0.019 25.81,27.25 25.81,27.25"
         inkscape:connector-curvature="0"
         style="fill:#f8a629;fill-rule:nonzero" />
         <path xmlns="http://www.w3.org/2000/svg" id="path724" style="fill:#1f4c51;fill-opacity:1;fill-rule:nonzero;stroke:none" d="m 5710.08,1064.06 c 0,-22.62 -18.34,-40.94 -40.95,-40.94 l -254.54,0 c -22.62,0 -40.94,18.32 -40.94,40.94 l 0,111.92 c 0,22.61 18.32,40.93 40.94,40.93 l 254.54,0 c 22.61,0 40.95,-18.32 40.95,-40.93 l 0,-111.92"/>
         <path xmlns="http://www.w3.org/2000/svg" id="path722" style="fill:#ffffff;fill-opacity:1;fill-rule:nonzero;stroke:none" d="m 5815.28,756.871 c 0,0 -4.59,-16.719 -26.64,-16.719 l 0,568.248 c 0,14.3 -11.52,25.83 -25.7,25.83 l -439,0.15 c 0,17.71 26.6,26.69 26.6,26.69 l 438.07,0 c 27.43,0 26.64,-24.15 26.64,-24.15 l 0,-580.049 0.03,0"/>
         <!--Fin de los path de su icono mi Amor --></g></g></svg>
