<?xml version="1.0" encoding="UTF-8" standalone="no"?>
<!-- Created with Inkscape (http://www.inkscape.org/) -->

<svg
   xmlns:dc="http://purl.org/dc/elements/1.1/"
   xmlns:cc="http://creativecommons.org/ns#"
   xmlns:rdf="http://www.w3.org/1999/02/22-rdf-syntax-ns#"
   xmlns:svg="http://www.w3.org/2000/svg"
   xmlns="http://www.w3.org/2000/svg"
   xmlns:sodipodi="http://sodipodi.sourceforge.net/DTD/sodipodi-0.dtd"
   xmlns:inkscape="http://www.inkscape.org/namespaces/inkscape"
   id="svg2"
   version="1.1"
   inkscape:version="0.91 r13725"
   width="1000"
   height="1000"
   xml:space="preserve"
   sodipodi:docname="book.svg"><metadata
     id="metadata8"><rdf:RDF><cc:Work
         rdf:about=""><dc:format>image/svg+xml</dc:format><dc:type
           rdf:resource="http://purl.org/dc/dcmitype/StillImage" /><dc:title /></cc:Work></rdf:RDF></metadata><defs
     id="defs6"><clipPath
       clipPathUnits="userSpaceOnUse"
       id="clipPath368"><path
         d="m 4038,3473.2 -2.05,747.86 -115.08,-0.32 2.06,-747.85 115.07,0.31"
         id="path370" /></clipPath><clipPath
       clipPathUnits="userSpaceOnUse"
       id="clipPath410"><path
         d="m 4215.49,3624.5 0.1,239.27 c 56.82,-14.4 98.57,-63.13 98.16,-120.53 -0.4,-56.88 -42.05,-104.61 -98.26,-118.74 m 0.14,386.74 -129.01,0.04 -0.19,-536.83 129.02,-0.04 0.02,41.78 c 114.95,16.07 203.9,111.13 204.7,226.31 0.82,116.17 -88.35,213.15 -204.56,229.57 l 0.02,39.17"
         id="path412" /></clipPath><clipPath
       clipPathUnits="userSpaceOnUse"
       id="clipPath608"><path
         d="m 5848.4,2521.29 c -8.46,148.49 -131.47,266.29 -282.05,266.29 -150.6,0 -273.64,-117.8 -282.07,-266.29 -0.32,-2.95 -0.5,-5.93 -0.5,-8.97 l 0,-329.48 c 0,-46.08 37.32,-83.43 83.39,-83.43 l 398.32,0 c 46.06,0 83.41,37.35 83.41,83.43 l 0,329.48 c 0,3.04 -0.19,6.02 -0.5,8.97"
         id="path610" /></clipPath></defs><sodipodi:namedview
     pagecolor="#ffffff"
     bordercolor="#666666"
     borderopacity="1"
     objecttolerance="10"
     gridtolerance="10"
     guidetolerance="10"
     inkscape:pageopacity="0"
     inkscape:pageshadow="2"
     inkscape:window-width="640"
     inkscape:window-height="480"
     id="namedview4"
     showgrid="false"
     inkscape:zoom="0.236"
     inkscape:cx="500"
     inkscape:cy="730.53423"
     inkscape:window-x="0"
     inkscape:window-y="27"
     inkscape:window-maximized="0"
     inkscape:current-layer="g10" /><g
     id="g10"
     inkscape:groupmode="layer"
     inkscape:label="ink_ext_XXXXXX"
     transform="matrix(1.25,0,0,-1.25,0,1000)"><g
       id="g12"
       transform="matrix(0.1,0,0,0.1,-338.98305,203.38984)"><!--Acá inicia a colocar los path de su icono mi Amor --><path
         id="path616"
         d="m 4634.38,5272.41 c 0,-324.41 -262.99,-587.39 -587.41,-587.39 -324.4,0 -587.39,262.98 -587.39,587.39 0,324.4 262.99,587.38 587.39,587.38 324.42,0 587.41,-262.98 587.41,-587.38"
         style="fill:#f8a629;fill-opacity:1;fill-rule:nonzero;stroke:none"
         inkscape:connector-curvature="0" />
         <path xmlns="http://www.w3.org/2000/svg" id="path620" style="fill:#2f8587;fill-opacity:1;fill-rule:nonzero;stroke:none" d="m 4254.62,5547.62 c -119.02,0 -174,-17.99 -174,-17.99 -10.01,-3.27 -26.45,-3.46 -36.52,-0.41 0,0 -61.04,18.4 -180.07,18.4 -119.01,0 -173.98,-17.99 -173.98,-17.99 -10.01,-3.27 -18.19,-14.56 -18.19,-25.09 l 0,-481.69 c 0,-10.53 8.4,-17.3 18.69,-15.04 0,0 90.59,19.84 186.25,19.84 95.65,0 167.14,-19.02 167.14,-19.02 10.16,-2.71 26.9,-3.08 37.18,-0.82 0,0 90.58,19.84 186.24,19.84 95.66,0 167.15,-19.02 167.15,-19.02 10.16,-2.71 18.49,3.69 18.49,14.22 l 0,481.69 c 0,10.53 -8.24,21.63 -18.33,24.68 0,0 -61.04,18.4 -180.05,18.4"/>
         <path xmlns="http://www.w3.org/2000/svg" id="path624" style="fill:#f1e5ba;fill-opacity:1;fill-rule:nonzero;stroke:none" d="m 4230.84,5514.11 c -104.3,0 -152.48,-15.74 -152.48,-15.74 -8.77,-2.88 -23.16,-3.03 -32,-0.38 0,0 -53.47,16.12 -157.77,16.12 -104.28,0 -133.31,-10.96 -133.31,-10.96 -8.78,-2.87 -15.95,-12.76 -15.95,-21.98 l 0,-422.09 c 0,-9.22 7.38,-15.15 16.38,-13.17 0,0 60.24,12.59 144.07,12.59 83.8,0 146.43,-16.65 146.43,-16.65 8.93,-2.39 23.58,-2.7 32.59,-0.72 0,0 79.39,17.37 163.2,17.37 83.81,0 146.45,-16.65 146.45,-16.65 8.92,-2.39 16.21,3.22 16.21,12.45 l 0,422.09 c 0,9.22 -7.23,18.95 -16.07,21.6 0,0 -53.46,16.12 -157.75,16.12"/>
         <path xmlns="http://www.w3.org/2000/svg" id="path628" style="fill:#f0453a;fill-opacity:1;fill-rule:nonzero;stroke:none" d="m 4046.36,5266.1 30.8203,0 0,231.891 -30.8203,0 0,-231.891 z"/>
       </g></g></svg>
