<?xml version="1.0" encoding="UTF-8" standalone="no"?>
<!-- Created with Inkscape (http://www.inkscape.org/) -->

<svg
   xmlns:dc="http://purl.org/dc/elements/1.1/"
   xmlns:cc="http://creativecommons.org/ns#"
   xmlns:rdf="http://www.w3.org/1999/02/22-rdf-syntax-ns#"
   xmlns:svg="http://www.w3.org/2000/svg"
   xmlns="http://www.w3.org/2000/svg"
   xmlns:sodipodi="http://sodipodi.sourceforge.net/DTD/sodipodi-0.dtd"
   xmlns:inkscape="http://www.inkscape.org/namespaces/inkscape"
   id="svg2"
   version="1.1"
   inkscape:version="0.91 r13725"
   width="1000"
   height="1000"
   xml:space="preserve"
   sodipodi:docname="book.svg"><metadata
     id="metadata8"><rdf:RDF><cc:Work
         rdf:about=""><dc:format>image/svg+xml</dc:format><dc:type
           rdf:resource="http://purl.org/dc/dcmitype/StillImage" /><dc:title /></cc:Work></rdf:RDF></metadata><defs
     id="defs6"><clipPath
       clipPathUnits="userSpaceOnUse"
       id="clipPath368"><path
         d="m 4038,3473.2 -2.05,747.86 -115.08,-0.32 2.06,-747.85 115.07,0.31"
         id="path370" /></clipPath><clipPath
       clipPathUnits="userSpaceOnUse"
       id="clipPath410"><path
         d="m 4215.49,3624.5 0.1,239.27 c 56.82,-14.4 98.57,-63.13 98.16,-120.53 -0.4,-56.88 -42.05,-104.61 -98.26,-118.74 m 0.14,386.74 -129.01,0.04 -0.19,-536.83 129.02,-0.04 0.02,41.78 c 114.95,16.07 203.9,111.13 204.7,226.31 0.82,116.17 -88.35,213.15 -204.56,229.57 l 0.02,39.17"
         id="path412" /></clipPath><clipPath
       clipPathUnits="userSpaceOnUse"
       id="clipPath608"><path
         d="m 5848.4,2521.29 c -8.46,148.49 -131.47,266.29 -282.05,266.29 -150.6,0 -273.64,-117.8 -282.07,-266.29 -0.32,-2.95 -0.5,-5.93 -0.5,-8.97 l 0,-329.48 c 0,-46.08 37.32,-83.43 83.39,-83.43 l 398.32,0 c 46.06,0 83.41,37.35 83.41,83.43 l 0,329.48 c 0,3.04 -0.19,6.02 -0.5,8.97"
         id="path610" /></clipPath></defs><sodipodi:namedview
     pagecolor="#ffffff"
     bordercolor="#666666"
     borderopacity="1"
     objecttolerance="10"
     gridtolerance="10"
     guidetolerance="10"
     inkscape:pageopacity="0"
     inkscape:pageshadow="2"
     inkscape:window-width="640"
     inkscape:window-height="480"
     id="namedview4"
     showgrid="false"
     inkscape:zoom="0.236"
     inkscape:cx="500"
     inkscape:cy="500"
     inkscape:window-x="0"
     inkscape:window-y="27"
     inkscape:window-maximized="0"
     inkscape:current-layer="g10" /><g
     id="g10"
     inkscape:groupmode="layer"
     inkscape:label="ink_ext_XXXXXX"
     transform="matrix(1.25,0,0,-1.25,0,1000)"><g
       id="g12"
       transform="matrix(0.1,0,0,0.1,-40.677963,488.1356)"><!--Acá inicia a colocar los path de su icono mi Amor -->
         <path xmlns="http://www.w3.org/2000/svg" id="path470" style="fill:#192c3c;fill-opacity:1;fill-rule:nonzero;stroke:none" d="m 1480.5,2161.08 c -2.5,12.43 -121.71,484.83 -121.71,484.83 -2.91,14.34 -16.96,23.72 -31.41,20.78 -14.4,-2.91 -23.72,-17.05 -20.8,-31.39 l 112.28,-447.48 -148.88,-33.62 -112.41,450.87 c -2.92,14.35 -16.95,23.75 -31.39,20.8 l -1.06,-0.33 c -13.78,-3.39 -22.58,-17.09 -19.75,-31.07 l 19.72,-79.09 101.77,-408.2 c 2.86,-14.06 16.25,-23.19 30.25,-20.95 l 0.15,-0.44 206.49,47.5 -0.08,0.34 0.08,0.03 c 12.99,3.18 19.77,12.45 16.75,27.42"/>
         <path xmlns="http://www.w3.org/2000/svg" id="path456" style="fill:#f9f3e6;fill-opacity:1;fill-rule:nonzero;stroke:none" d="m 943.789,2127.76 167.973,0 0,570.617 -167.973,0 0,-570.617 z"/>
         <path xmlns="http://www.w3.org/2000/svg" id="path466" style="fill:#f9f3e6;fill-opacity:1;fill-rule:nonzero;stroke:none" d="m 745.938,2144.07 167.969,0 0,570.621 -167.969,0 0,-570.621 z"/>
         <path xmlns="http://www.w3.org/2000/svg" id="path464" style="fill:#f8a629;fill-opacity:1;fill-rule:nonzero;stroke:none" d="m 1068.26,2629.32 -80.662,0.05 c -9.176,0 -16.684,7.5 -16.684,16.69 0,9.19 7.508,16.68 16.684,16.68 l 80.662,-0.07 c 9.18,0 16.66,-7.5 16.66,-16.69 -0.05,-9.15 -7.48,-16.66 -16.66,-16.66 z m -0.1,-478.28 -80.66,0.09 c -9.176,0 -16.687,7.51 -16.687,16.68 0.031,9.18 7.5,16.7 16.722,16.7 l 80.665,-0.1 c 9.17,0 16.66,-7.5 16.66,-16.68 0,-9.19 -7.48,-16.69 -16.7,-16.69 z m 56.96,474.5 0.07,113.61 c 0.1,26.29 -21.22,47.6 -47.53,47.6 l -99.406,0.12 c -26.262,0 -47.551,-21.24 -47.574,-47.61 l -0.325,-610.85 c 0,-26.24 21.247,-47.66 47.543,-47.66 l 99.352,-0.05 c 26.32,0 47.64,21.33 47.64,47.55 l 0.2,387.13 -19.72,79.09 c -2.83,13.98 5.97,27.68 19.75,31.07"/>
         <path xmlns="http://www.w3.org/2000/svg" id="path468" style="fill:#2f8587;fill-opacity:1;fill-rule:nonzero;stroke:none" d="m 869.086,2639.83 -80.617,0.05 c -9.156,0 -16.649,7.5 -16.649,16.69 0,9.19 7.493,16.69 16.649,16.69 l 80.617,-0.09 c 9.207,0 16.652,-7.49 16.652,-16.68 0,-9.16 -7.484,-16.66 -16.652,-16.66 z m 0,-478.28 -80.684,0.09 c -9.16,0 -16.683,7.52 -16.683,16.69 0.054,9.18 7.504,16.69 16.699,16.69 l 80.684,-0.09 c 9.175,0 16.636,-7.51 16.636,-16.69 0,-9.19 -7.484,-16.69 -16.652,-16.69 z m 9.398,635.73 -99.304,0.12 c -26.289,0 -47.621,-21.24 -47.676,-47.6 l -0.258,-610.87 c -0.07,-26.24 21.234,-47.66 47.492,-47.66 l 99.309,-0.06 c 26.34,0 47.691,21.33 47.719,47.55 l 0.257,610.9 c 0.055,26.31 -21.226,47.62 -47.539,47.62"/>
         <path xmlns="http://www.w3.org/2000/svg" id="path458" style="fill:#f9f3e6;fill-opacity:1;fill-rule:nonzero;stroke:none" d="m 1469.25,2155.57 -210.95,-56.61 -135.87,506.44 210.94,56.58 135.88,-506.41"/>
         <path xmlns="http://www.w3.org/2000/svg" id="path462" style="fill:#2f8587;fill-opacity:1;fill-rule:nonzero;stroke:none" d="m 1274.84,2628.62 c -1.3,6.29 -7.44,10.41 -13.77,9.12 -6.27,-1.26 -10.35,-7.46 -9.05,-13.78 l 121.42,-486.85 c 1.26,-6.24 7.42,-10.39 13.68,-9.12 6.33,1.25 10.38,7.5 9.1,13.76 l -121.38,486.87"/>
         <path xmlns="http://www.w3.org/2000/svg" id="path460" style="fill:#2f8587;fill-opacity:1;fill-rule:nonzero;stroke:none" d="m 1213.94,2616.27 c -1.27,6.27 -7.46,10.41 -13.72,9.15 -6.32,-1.29 -10.41,-7.5 -9.14,-13.8 l 121.42,-486.85 c 1.26,-6.26 7.46,-10.4 13.78,-9.13 6.29,1.27 10.36,7.49 9.07,13.74 l -121.41,486.89"/>
         <!--Fin de los path de su icono mi Amor --></g></g></svg>
