<?xml version="1.0" encoding="UTF-8" standalone="no"?>
<!-- Created with Inkscape (http://www.inkscape.org/) -->

<svg
   xmlns:dc="http://purl.org/dc/elements/1.1/"
   xmlns:cc="http://creativecommons.org/ns#"
   xmlns:rdf="http://www.w3.org/1999/02/22-rdf-syntax-ns#"
   xmlns:svg="http://www.w3.org/2000/svg"
   xmlns="http://www.w3.org/2000/svg"
   xmlns:sodipodi="http://sodipodi.sourceforge.net/DTD/sodipodi-0.dtd"
   xmlns:inkscape="http://www.inkscape.org/namespaces/inkscape"
   id="svg2"
   version="1.1"
   inkscape:version="0.91 r13725"
   width="1000"
   height="1000"
   xml:space="preserve"
   sodipodi:docname="book.svg"><metadata
     id="metadata8"><rdf:RDF><cc:Work
         rdf:about=""><dc:format>image/svg+xml</dc:format><dc:type
           rdf:resource="http://purl.org/dc/dcmitype/StillImage" /><dc:title /></cc:Work></rdf:RDF></metadata><defs
     id="defs6"><clipPath
       clipPathUnits="userSpaceOnUse"
       id="clipPath368"><path
         d="m 4038,3473.2 -2.05,747.86 -115.08,-0.32 2.06,-747.85 115.07,0.31"
         id="path370" /></clipPath><clipPath
       clipPathUnits="userSpaceOnUse"
       id="clipPath410"><path
         d="m 4215.49,3624.5 0.1,239.27 c 56.82,-14.4 98.57,-63.13 98.16,-120.53 -0.4,-56.88 -42.05,-104.61 -98.26,-118.74 m 0.14,386.74 -129.01,0.04 -0.19,-536.83 129.02,-0.04 0.02,41.78 c 114.95,16.07 203.9,111.13 204.7,226.31 0.82,116.17 -88.35,213.15 -204.56,229.57 l 0.02,39.17"
         id="path412" /></clipPath><clipPath
       clipPathUnits="userSpaceOnUse"
       id="clipPath608"><path
         d="m 5848.4,2521.29 c -8.46,148.49 -131.47,266.29 -282.05,266.29 -150.6,0 -273.64,-117.8 -282.07,-266.29 -0.32,-2.95 -0.5,-5.93 -0.5,-8.97 l 0,-329.48 c 0,-46.08 37.32,-83.43 83.39,-83.43 l 398.32,0 c 46.06,0 83.41,37.35 83.41,83.43 l 0,329.48 c 0,3.04 -0.19,6.02 -0.5,8.97"
         id="path610" /></clipPath></defs><sodipodi:namedview
     pagecolor="#ffffff"
     bordercolor="#666666"
     borderopacity="1"
     objecttolerance="10"
     gridtolerance="10"
     guidetolerance="10"
     inkscape:pageopacity="0"
     inkscape:pageshadow="2"
     inkscape:window-width="640"
     inkscape:window-height="480"
     id="namedview4"
     showgrid="false"
     inkscape:zoom="0.236"
     inkscape:cx="500"
     inkscape:cy="730.53423"
     inkscape:window-x="0"
     inkscape:window-y="27"
     inkscape:window-maximized="0"
     inkscape:current-layer="g10" /><g
     id="g10"
     inkscape:groupmode="layer"
     inkscape:label="ink_ext_XXXXXX"
     transform="matrix(1.25,0,0,-1.25,0,1000)"><g
       id="g12"
       transform="matrix(0.1,0,0,0.1,-637.28813,623.72882)"><!--Acá inicia a colocar los path de su icono mi Amor --><path
         id="path690"
         style="fill:#2f8587;fill-opacity:1;fill-rule:nonzero;stroke:none"
         d="m 7624.54,1051.43 c 0,-324.399 -262.98,-587.391 -587.39,-587.391 -324.41,0 -587.4,262.992 -587.4,587.391 0,324.41 262.99,587.39 587.4,587.39 324.41,0 587.39,-262.98 587.39,-587.39"
         inkscape:connector-curvature="0" />
         <path xmlns="http://www.w3.org/2000/svg" id="path692" style="fill:#192c3c;fill-opacity:1;fill-rule:nonzero;stroke:none" d="m 7383.19,723.449 c 0,-35.097 -28.7,-63.777 -63.78,-63.777 l -514.03,0 c -35.08,0 -63.8,28.68 -63.8,63.777 l 0,646.821 c 0,35.08 28.72,63.81 63.8,63.81 l 514.03,0 c 35.08,0 63.78,-28.73 63.78,-63.81 l 0,-646.821"/>
         <path xmlns="http://www.w3.org/2000/svg" id="path694" style="fill:#f1e5ba;fill-opacity:1;fill-rule:nonzero;stroke:none" d="m 7321.48,1210.78 c 0,-14.61 -11.94,-26.53 -26.53,-26.53 l -465.12,0 c -14.6,0 -26.54,11.92 -26.54,26.53 l 0,101.76 c 0,14.61 11.94,26.55 26.54,26.55 l 465.12,0 c 14.59,0 26.53,-11.94 26.53,-26.55 l 0,-101.76"/>
         <path xmlns="http://www.w3.org/2000/svg" id="path696" style="fill:#f8a629;fill-opacity:1;fill-rule:nonzero;stroke:none" d="m 6917.16,1026.64 c 0,-9.77 -7.94,-17.7 -17.73,-17.7 l -65.11,0 c -9.79,0 -17.72,7.93 -17.72,17.7 l 0,65.14 c 0,9.77 7.93,17.71 17.72,17.71 l 65.11,0 c 9.79,0 17.73,-7.94 17.73,-17.71 l 0,-65.14"/>
         <path xmlns="http://www.w3.org/2000/svg" id="path704" style="fill:#f8a629;fill-opacity:1;fill-rule:nonzero;stroke:none" d="m 6917.16,904.41 c 0,-9.801 -7.94,-17.738 -17.73,-17.738 l -65.11,0 c -9.79,0 -17.72,7.937 -17.72,17.738 l 0,65.11 c 0,9.793 7.93,17.71 17.72,17.71 l 65.11,0 c 9.79,0 17.73,-7.917 17.73,-17.71 l 0,-65.11"/>
         <path xmlns="http://www.w3.org/2000/svg" id="path710" style="fill:#f8a629;fill-opacity:1;fill-rule:nonzero;stroke:none" d="m 6917.16,782.141 c 0,-9.782 -7.94,-17.731 -17.73,-17.731 l -65.11,0 c -9.79,0 -17.72,7.949 -17.72,17.731 l 0,65.109 c 0,9.781 7.93,17.719 17.72,17.719 l 65.11,0 c 9.79,0 17.73,-7.938 17.73,-17.719 l 0,-65.109"/>
         <path xmlns="http://www.w3.org/2000/svg" id="path698" style="fill:#f8a629;fill-opacity:1;fill-rule:nonzero;stroke:none" d="m 7047.5,1026.64 c 0,-9.77 -7.93,-17.7 -17.73,-17.7 l -65.1,0 c -9.8,0 -17.71,7.93 -17.71,17.7 l 0,65.14 c 0,9.77 7.91,17.71 17.71,17.71 l 65.1,0 c 9.8,0 17.73,-7.94 17.73,-17.71 l 0,-65.14"/>
         <path xmlns="http://www.w3.org/2000/svg" id="path714" style="fill:#f8a629;fill-opacity:1;fill-rule:nonzero;stroke:none" d="m 7177.84,782.141 c 0,-9.782 -7.94,-17.731 -17.71,-17.731 l -65.12,0 c -9.8,0 -17.72,7.949 -17.72,17.731 l 0,65.109 c 0,9.781 7.92,17.719 17.72,17.719 l 65.12,0 c 9.77,0 17.71,-7.938 17.71,-17.719 l 0,-65.109"/>
         <path xmlns="http://www.w3.org/2000/svg" id="path706" style="fill:#f8a629;fill-opacity:1;fill-rule:nonzero;stroke:none" d="m 7047.5,904.41 c 0,-9.801 -7.93,-17.738 -17.73,-17.738 l -65.1,0 c -9.8,0 -17.71,7.937 -17.71,17.738 l 0,65.11 c 0,9.793 7.91,17.71 17.71,17.71 l 65.1,0 c 9.8,0 17.73,-7.917 17.73,-17.71 l 0,-65.11"/>
         <path xmlns="http://www.w3.org/2000/svg" id="path712" style="fill:#f8a629;fill-opacity:1;fill-rule:nonzero;stroke:none" d="m 7047.5,782.141 c 0,-9.782 -7.93,-17.731 -17.73,-17.731 l -65.1,0 c -9.8,0 -17.71,7.949 -17.71,17.731 l 0,65.109 c 0,9.781 7.91,17.719 17.71,17.719 l 65.1,0 c 9.8,0 17.73,-7.938 17.73,-17.719 l 0,-65.109"/>
         <path xmlns="http://www.w3.org/2000/svg" id="path700" style="fill:#f8a629;fill-opacity:1;fill-rule:nonzero;stroke:none" d="m 7177.84,1026.64 c 0,-9.77 -7.94,-17.7 -17.71,-17.7 l -65.12,0 c -9.8,0 -17.72,7.93 -17.72,17.7 l 0,65.14 c 0,9.77 7.92,17.71 17.72,17.71 l 65.12,0 c 9.77,0 17.71,-7.94 17.71,-17.71 l 0,-65.14"/>
         <path xmlns="http://www.w3.org/2000/svg" id="path708" style="fill:#f8a629;fill-opacity:1;fill-rule:nonzero;stroke:none" d="m 7177.84,904.41 c 0,-9.801 -7.94,-17.738 -17.71,-17.738 l -65.12,0 c -9.8,0 -17.72,7.937 -17.72,17.738 l 0,65.11 c 0,9.793 7.92,17.71 17.72,17.71 l 65.12,0 c 9.77,0 17.71,-7.917 17.71,-17.71 l 0,-65.11"/>
         <path xmlns="http://www.w3.org/2000/svg" id="path716" style="fill:#ed4b3b;fill-opacity:1;fill-rule:nonzero;stroke:none" d="m 7308.2,782.141 c 0,-9.782 -7.95,-17.731 -17.73,-17.731 l -65.12,0 c -9.78,0 -17.71,7.949 -17.71,17.731 l 0,184.718 c 0,9.782 7.93,17.711 17.71,17.711 l 65.12,0 c 9.78,0 17.73,-7.929 17.73,-17.711 l 0,-184.718"/>
         <path xmlns="http://www.w3.org/2000/svg" id="path702" style="fill:#f8a629;fill-opacity:1;fill-rule:nonzero;stroke:none" d="m 7308.2,1026.64 c 0,-9.77 -7.95,-17.7 -17.73,-17.7 l -65.12,0 c -9.78,0 -17.71,7.93 -17.71,17.7 l 0,65.14 c 0,9.77 7.93,17.71 17.71,17.71 l 65.12,0 c 9.78,0 17.73,-7.94 17.73,-17.71 l 0,-65.14"/>
       </g></g></svg>
