<?xml version="1.0" encoding="UTF-8" standalone="no"?>
<svg id="svg2" xmlns:rdf="http://www.w3.org/1999/02/22-rdf-syntax-ns#" xmlns="http://www.w3.org/2000/svg" xml:space="preserve" height="1000" width="1000" version="1.1" xmlns:cc="http://creativecommons.org/ns#" xmlns:dc="http://purl.org/dc/elements/1.1/">
  <metadata id="metadata8">
    <rdf:RDF><cc:Work rdf:about="">
      <dc:format>image/svg+xml</dc:format>
      <dc:type rdf:resource="http://purl.org/dc/dcmitype/StillImage"/><dc:title/>
    </cc:Work></rdf:RDF></metadata><defs id="defs6"/>
    <g id="g10" transform="matrix(1.25,0,0,-1.25,0,1000)"><g id="g12" transform="matrix(0.66988672,0,0,0.67565773,-1303.8398,-2212.1565)">
      <!--Acá inicia su icono mi Amor -->
      <path id="path330" fill-rule="nonzero" fill="#f8a629" d="m3134,3865.4c0-324.41-262.98-587.4-587.38-587.4-324.41,0-587.4,262.99-587.4,587.4,0,324.39,262.99,587.38,587.4,587.38,324.4,0,587.38-262.99,587.38-587.38"/>
      <path id="path332" fill-rule="evenodd" fill="#192c3c" d="m2820.7,3564.9c0-23.07-18.7-41.77-41.79-41.77h-447.57c-23.08,0-41.79,18.7-41.79,41.77v600.43c0,23.07,18.71,41.79,41.79,41.79h447.57c23.09,0,41.79-18.72,41.79-41.79v-600.43"/>
      <path id="path334" fill-rule="evenodd" fill="#f9f3e6" d="m2761.6,3631.7c0-17.93-14.55-32.47-32.49-32.47h-347.87c-17.95,0-32.49,14.54-32.49,32.47v466.69c0,17.95,14.54,32.47,32.49,32.47h347.87c17.94,0,32.49-14.52,32.49-32.47v-466.69"/>
      <path id="path336" fill-rule="evenodd" fill="#192c3c" d="m2716.8,4001.1c0-5.37-4.35-9.71-9.72-9.71h-222.91c-5.36,0-9.71,4.34-9.71,9.71v9.96c0,5.36,4.35,9.71,9.71,9.71h222.91c5.37,0,9.72-4.35,9.72-9.71v-9.96"/>
      <path id="path338" fill-rule="evenodd" fill="#192c3c" d="m2454.7,3988.8c0-5.61-4.54-10.14-10.13-10.14h-34.56c-5.6,0-10.14,4.53-10.14,10.14v34.55c0,5.6,4.54,10.15,10.14,10.15h34.56c5.59,0,10.13-4.55,10.13-10.15v-34.55"/>
      <path id="path340" fill-rule="evenodd" fill="#192c3c" d="m2716.8,3925.6c0-5.37-4.35-9.73-9.72-9.73h-222.91c-5.36,0-9.71,4.36-9.71,9.73v9.95c0,5.36,4.35,9.7,9.71,9.7h222.91c5.37,0,9.72-4.34,9.72-9.7v-9.95"/>
      <path id="path342" fill-rule="evenodd" fill="#192c3c" d="m2454.7,3913.3c0-5.6-4.54-10.15-10.13-10.15h-34.56c-5.6,0-10.14,4.55-10.14,10.15v34.53c0,5.61,4.54,10.14,10.14,10.14h34.56c5.59,0,10.13-4.53,10.13-10.14v-34.53"/>
      <path id="path344" fill-rule="evenodd" fill="#192c3c" d="m2716.8,3850c0-5.37-4.35-9.71-9.72-9.71h-222.91c-5.36,0-9.71,4.34-9.71,9.71v9.96c0,5.37,4.35,9.71,9.71,9.71h222.91c5.37,0,9.72-4.34,9.72-9.71v-9.96"/>
      <path id="path346" fill-rule="evenodd" fill="#192c3c" d="m2454.7,3837.7c0-5.6-4.54-10.14-10.13-10.14h-34.56c-5.6,0-10.14,4.54-10.14,10.14v34.54c0,5.6,4.54,10.14,10.14,10.14h34.56c5.59,0,10.13-4.54,10.13-10.14v-34.54"/>
      <path id="path348" fill-rule="evenodd" fill="#192c3c" d="m2716.8,3774.5c0-5.36-4.35-9.71-9.72-9.71h-222.91c-5.36,0-9.71,4.35-9.71,9.71v9.96c0,5.36,4.35,9.72,9.71,9.72h222.91c5.37,0,9.72-4.36,9.72-9.72v-9.96"/>
      <path id="path350" fill-rule="evenodd" fill="#192c3c" d="m2454.7,3762.2c0-5.61-4.54-10.14-10.13-10.14h-34.56c-5.6,0-10.14,4.53-10.14,10.14v34.54c0,5.59,4.54,10.13,10.14,10.13h34.56c5.59,0,10.13-4.54,10.13-10.13v-34.54"/>
      <path id="path352" fill-rule="evenodd" fill="#192c3c" d="m2716.8,3699c0-5.35-4.35-9.7-9.72-9.7h-222.91c-5.36,0-9.71,4.35-9.71,9.7v9.97c0,5.37,4.35,9.71,9.71,9.71h222.91c5.37,0,9.72-4.34,9.72-9.71v-9.97"/>
      <path id="path354" fill-rule="evenodd" fill="#192c3c" d="m2454.7,3686.7c0-5.6-4.54-10.15-10.13-10.15h-34.56c-5.6,0-10.14,4.55-10.14,10.15v34.55c0,5.61,4.54,10.14,10.14,10.14h34.56c5.59,0,10.13-4.53,10.13-10.14v-34.55"/>
      <path id="path356" fill-rule="evenodd" fill="#2f8587" d="m2646.1,4112.8c0-19.18-15.54-34.71-34.71-34.71h-122.02c-19.17,0-34.71,15.53-34.71,34.71v28.5c0,19.17,15.54,34.72,34.71,34.72h122.02c19.17,0,34.71-15.55,34.71-34.72v-28.5"/>
    </g>
  </g>
</svg>
