<?xml version="1.0" encoding="UTF-8" standalone="no"?>
<!-- Created with Inkscape (http://www.inkscape.org/) -->

<svg
   xmlns:dc="http://purl.org/dc/elements/1.1/"
   xmlns:cc="http://creativecommons.org/ns#"
   xmlns:rdf="http://www.w3.org/1999/02/22-rdf-syntax-ns#"
   xmlns:svg="http://www.w3.org/2000/svg"
   xmlns="http://www.w3.org/2000/svg"
   xmlns:sodipodi="http://sodipodi.sourceforge.net/DTD/sodipodi-0.dtd"
   xmlns:inkscape="http://www.inkscape.org/namespaces/inkscape"
   id="svg2"
   version="1.1"
   inkscape:version="0.91 r13725"
   width="1000"
   height="1000"
   xml:space="preserve"
   sodipodi:docname="book.svg"><metadata
     id="metadata8"><rdf:RDF><cc:Work
         rdf:about=""><dc:format>image/svg+xml</dc:format><dc:type
           rdf:resource="http://purl.org/dc/dcmitype/StillImage" /><dc:title /></cc:Work></rdf:RDF></metadata><defs
     id="defs6"><clipPath
       clipPathUnits="userSpaceOnUse"
       id="clipPath368"><path
         d="m 4038,3473.2 -2.05,747.86 -115.08,-0.32 2.06,-747.85 115.07,0.31"
         id="path370" /></clipPath><clipPath
       clipPathUnits="userSpaceOnUse"
       id="clipPath410"><path
         d="m 4215.49,3624.5 0.1,239.27 c 56.82,-14.4 98.57,-63.13 98.16,-120.53 -0.4,-56.88 -42.05,-104.61 -98.26,-118.74 m 0.14,386.74 -129.01,0.04 -0.19,-536.83 129.02,-0.04 0.02,41.78 c 114.95,16.07 203.9,111.13 204.7,226.31 0.82,116.17 -88.35,213.15 -204.56,229.57 l 0.02,39.17"
         id="path412" /></clipPath><clipPath
       clipPathUnits="userSpaceOnUse"
       id="clipPath608"><path
         d="m 5848.4,2521.29 c -8.46,148.49 -131.47,266.29 -282.05,266.29 -150.6,0 -273.64,-117.8 -282.07,-266.29 -0.32,-2.95 -0.5,-5.93 -0.5,-8.97 l 0,-329.48 c 0,-46.08 37.32,-83.43 83.39,-83.43 l 398.32,0 c 46.06,0 83.41,37.35 83.41,83.43 l 0,329.48 c 0,3.04 -0.19,6.02 -0.5,8.97"
         id="path610" /></clipPath></defs><sodipodi:namedview
     pagecolor="#ffffff"
     bordercolor="#666666"
     borderopacity="1"
     objecttolerance="10"
     gridtolerance="10"
     guidetolerance="10"
     inkscape:pageopacity="0"
     inkscape:pageshadow="2"
     inkscape:window-width="640"
     inkscape:window-height="480"
     id="namedview4"
     showgrid="false"
     inkscape:zoom="0.236"
     inkscape:cx="500"
     inkscape:cy="730.53423"
     inkscape:window-x="0"
     inkscape:window-y="27"
     inkscape:window-maximized="0"
     inkscape:current-layer="g10" /><g
     id="g10"
     inkscape:groupmode="layer"
     inkscape:label="ink_ext_XXXXXX"
     transform="matrix(1.25,0,0,-1.25,0,1000)"><g
       id="g12"
       transform="matrix(0.1,0,0,0.1,-44.067796,633.89831)"><!--Acá inicia a colocar los path de su icono mi Amor --><path
         id="path488"
         style="fill:#f8a629;fill-opacity:1;fill-rule:nonzero;stroke:none"
         d="m 1633.68,1051.43 c 0,-324.399 -262.99,-587.391 -587.39,-587.391 -324.403,0 -587.388,262.992 -587.388,587.391 0,324.41 262.985,587.39 587.388,587.39 324.4,0 587.39,-262.98 587.39,-587.39"
         inkscape:connector-curvature="0" />
         <path id="path492" style="fill:#1f4c51;fill-opacity:1;fill-rule:nonzero;stroke:none" d="m 1244.38,667.34 c 9.44,-9.442 24.78,-9.449 34.22,0 l 25.09,25.101 c 9.44,9.438 9.44,24.758 0,34.207 l -149.98,149.981 c -9.45,9.441 -24.76,9.441 -34.22,0 l -25.09,-25.09 c -9.44,-9.449 -9.44,-24.758 0,-34.219 l 149.98,-149.98"></path>
         <path id="path490" style="fill:#1f4c51;fill-opacity:1;fill-rule:nonzero;stroke:none" d="m 854.465,667.34 c -9.449,-9.442 -24.774,-9.449 -34.223,0 l -25.09,25.101 c -9.445,9.438 -9.445,24.758 0,34.207 l 149.981,149.981 c 9.445,9.441 24.765,9.441 34.219,0 l 25.088,-25.09 c 9.45,-9.449 9.45,-24.758 0,-34.219 L 854.465,667.34"></path>
         <path id="path496" style="fill:#1f4c51;fill-opacity:1;fill-rule:nonzero;stroke:none" d="m 1394.25,1316.38 c 0,-69.7 -56.51,-126.2 -126.21,-126.2 -69.7,0 -126.21,56.5 -126.21,126.2 0,69.68 56.51,126.21 126.21,126.21 69.7,0 126.21,-56.53 126.21,-126.21"></path>
         <path id="path494" style="fill:#1f4c51;fill-opacity:1;fill-rule:nonzero;stroke:none" d="m 991.117,1316.38 c 0,-69.7 -56.5,-126.2 -126.199,-126.2 -69.703,0 -126.207,56.5 -126.207,126.2 0,69.68 56.504,126.21 126.207,126.21 69.699,0 126.199,-56.53 126.199,-126.21"></path>
         <path id="path498" style="fill:#f0453a;fill-opacity:1;fill-rule:nonzero;stroke:none" d="m 1390.1,1044.84 c 0,-188.141 -152.53,-340.68 -340.68,-340.68 -188.15,0 -340.69,152.539 -340.69,340.68 0,188.17 152.54,340.7 340.69,340.7 188.15,0 340.68,-152.53 340.68,-340.7"></path>
         <path xmlns="http://www.w3.org/2000/svg" id="path500" style="fill:#f9f3e6;fill-opacity:1;fill-rule:nonzero;stroke:none" d="m 1328.75,1044.84 c 0,-154.238 -125.06,-279.309 -279.33,-279.309 -154.275,0 -279.326,125.071 -279.326,279.309 0,154.28 125.051,279.34 279.326,279.34 154.27,0 279.33,-125.06 279.33,-279.34"/>
         <path xmlns="http://www.w3.org/2000/svg" id="path504" style="fill:#192c3c;fill-opacity:1;fill-rule:nonzero;stroke:none" d="m 1032.8,787.039 33.8906,0 0,61.9102 -33.8906,0 0,-61.9102 z"/>
         <path xmlns="http://www.w3.org/2000/svg" id="path506" style="fill:#192c3c;fill-opacity:1;fill-rule:nonzero;stroke:none" d="m 1243.23,1025.49 61.8984,0 0,33.8789 -61.8984,0 0,-33.8789 z"/>
         <path xmlns="http://www.w3.org/2000/svg" id="path508" style="fill:#192c3c;fill-opacity:1;fill-rule:nonzero;stroke:none" d="m 794.359,1025.49 61.9023,0 0,33.8789 -61.9023,0 0,-33.8789 z"/>
         <path xmlns="http://www.w3.org/2000/svg" id="path502" style="fill:#192c3c;fill-opacity:1;fill-rule:nonzero;stroke:none" d="m 1032.8,1235.92 33.8906,0 0,61.8789 -33.8906,0 0,-61.8789 z"/>
         <path xmlns="http://www.w3.org/2000/svg" id="path510" style="fill:#192c3c;fill-opacity:1;fill-rule:nonzero;stroke:none" d="m 1071.55,1029.37 c 0,-3.56 -2.91,-6.46 -6.46,-6.46 l -25.84,0 c -3.54,0 -6.45,2.9 -6.45,6.46 l 0,153 c 0,3.55 1.34,9.04 2.97,12.2 l 13.43,25.94 c 1.63,3.15 4.31,3.15 5.94,0 l 13.43,-25.94 c 1.64,-3.16 2.98,-8.65 2.98,-12.2 l 0,-153"/>
         <path xmlns="http://www.w3.org/2000/svg" id="path512" style="fill:#f0453a;fill-opacity:1;fill-rule:nonzero;stroke:none" d="m 1039.25,1020.64 c -3.54,0 -6.45,2.9 -6.45,6.45 l 0,25.84 c 0,3.55 2.91,6.45 6.45,6.45 l 69.04,0 c 3.56,0 9.04,-1.33 12.19,-2.96 l 25.95,-13.44 c 3.16,-1.63 3.16,-4.31 0,-5.95 l -25.95,-13.43 c -3.15,-1.64 -8.63,-2.96 -12.19,-2.96 l -69.04,0"/>
         <path xmlns="http://www.w3.org/2000/svg" id="path514" style="fill:#1f4c51;fill-opacity:1;fill-rule:nonzero;stroke:none" d="m 912.094,908.512 -4.473,4.66 139.559,134.008 4.47,-4.65 -139.556,-134.018"/>
         <path xmlns="http://www.w3.org/2000/svg" id="path516" style="fill:#1f4c51;fill-opacity:1;fill-rule:nonzero;stroke:none" d="m 1089.3,1038.39 c 0,-16.93 -13.74,-30.68 -30.68,-30.68 -16.95,0 -30.68,13.75 -30.68,30.68 0,16.94 13.73,30.67 30.68,30.67 16.94,0 30.68,-13.73 30.68,-30.67"/>

       </g></g></svg>
